<?xml version="1.0" encoding="UTF-8"?>
<svg width="313px" height="242px" viewBox="0 0 313 242" version="1.1" xmlns="http://www.w3.org/2000/svg" xmlns:xlink="http://www.w3.org/1999/xlink">
    <!-- Generator: Sketch 52.5 (67469) - http://www.bohemiancoding.com/sketch -->
    <title>Group 10</title>
    <desc>Created with Sketch.</desc>
    <defs>
        <polygon id="path-1" points="0.000944427746 0.330376364 312.599288 0.330376364 312.599288 241.688889 0.000944427746 241.688889"></polygon>
    </defs>
    <g id="Page-1" stroke="none" stroke-width="1" fill="none" fill-rule="evenodd">
        <g id="Desktop-V.1" transform="translate(-89.000000, -4562.000000)">
            <g id="Group-38" transform="translate(89.000000, 4562.000000)">
                <g id="Group-10">
                    <g id="Group-3">
                        <mask id="mask-2" fill="white">
                            <use xlink:href="#path-1"></use>
                        </mask>
                        <g id="Clip-2"></g>
                        <path d="M273.32463,68.4219446 C273.32463,29.421525 286.417547,16.6346572 312.600232,6.72223437 L312.600232,0.330376364 L226.707677,0.330376364 L226.707677,6.72223437 C252.890362,16.6346572 265.98013,29.421525 265.98013,68.4219446 L265.98013,182.867091 L84.2974169,8.96001504 C75.995897,1.2885247 73.7607514,0.330376364 68.3302918,0.330376364 L0.000944427746,0.330376364 L0.000944427746,6.72223437 C15.0079013,8.32019887 23.948484,12.477428 45.6608778,33.5756023 L53.9623977,41.5685767 L53.9623977,171.999671 C53.9623977,211.000091 40.8726292,223.786959 14.689944,233.69623 L14.689944,240.09124 L100.579351,240.09124 L100.579351,233.69623 C74.3998141,223.786959 61.3068975,211.000091 61.3068975,171.999671 L61.3068975,47.6421025 L266.940299,241.689204 L273.32463,241.689204 L273.32463,68.4219446 Z" id="Fill-1" fill="#000000" mask="url(#mask-2)"></path>
                    </g>
                    <path d="M167.888414,223.577778 C174.287353,220.886441 182.848648,216.333333 189.952635,208.895746 C190.056504,210.634033 189.908569,215.139646 189.423849,218.119114 C198.400619,210.922164 207.673257,196.870221 212.174232,182.840443 C214.342884,176.089938 214.66708,171.065054 212.353642,161.718201 C212.193117,161.056449 214.984981,157.497552 214.893702,153.159751 C214.846489,150.842036 213.76059,148.454662 213.76059,148.454662 C224.418143,144.826107 228.349415,143.391783 235.657991,134.13042 C235.960154,133.7473 238.96605,134.307731 240.08972,133.361014 C243.86991,130.182071 247.798033,124.527098 249.516588,119.977156 C250.498618,117.380808 250.860585,114.439336 250.961306,111.30472 C253.904251,108.090948 256.652049,104.456061 256.913295,96.9456488 C254.514873,94.1434926 249.126293,92.2183955 239.919753,88.8621406 C234.672812,86.9497086 226.621418,83.7834305 224.097095,82.2256216 C225.419059,80.2308664 226.3885,77.2957265 226.309812,75.7347514 C226.196501,73.5848485 223.974341,70.0417832 222.579983,67.1763015 C221.349297,62.7720085 220.508905,59.7450466 219.309694,57.962432 C217.657238,55.4959013 215.812783,54.5396853 212.737641,52.7190754 C216.269175,35.447028 211.390496,31.2833722 210.786169,19.0235431 C202.067497,18.3459596 193.166268,31.2105478 190.918928,32.6385392 C187.787131,34.6301282 184.516842,38.030711 184.516842,38.030711 C176.116071,34.6807887 172.370504,34.4623155 166.415368,35.7573232 C162.389671,15.8952603 154.070736,4.73096348 139.972926,0.811111111 C133.167956,21.594561 127.429999,32.0306138 126.098592,34.0190365 C119.583195,43.7521756 118.03146,48.5459207 115.765235,63.9973582 C109.98636,67.853885 106.039351,72.5019814 103.042898,77.4192113 C97.2010731,86.9908702 91.9761649,99.9504468 84.3906056,110.589141 C86.3452248,127.823193 82.1495606,135.963695 81.416185,152.675311 C89.2850225,179.572844 107.75161,196.787898 140.794433,219.192483 C140.020139,213.410859 140.139746,208.404973 140.243614,205.194367 C147.674945,212.644619 158.04922,218.527564 167.888414,223.577778" id="Fill-4" fill="#241F21"></path>
                    <path d="M242.398609,118.729842 C241.582292,120.768726 239.240504,124.36509 237.179226,124.950325 C236.580384,123.956055 235.634844,122.769852 234.746036,122.222374 C231.871593,122.467795 218.315697,129.843017 203.46441,125.941449 C194.399831,123.562751 187.040375,115.108306 176.910486,122.779292 C188.565847,123.248109 193.687523,128.738621 203.272151,130.982023 C212.434436,133.127885 216.594814,131.812679 222.706156,131.573551 C225.088917,131.479158 226.418978,131.734018 227.080856,132.086418 C227.440161,132.275204 227.484286,132.608725 227.219535,132.995735 C225.413553,135.651318 212.585723,143.806853 201.727768,141.431302 C193.949123,135.9754 186.318613,134.01203 180.421593,134.222841 C175.700195,134.392748 171.867605,136.079232 169.415503,138.099237 C175.949187,137.995405 180.550817,140.119242 184.484264,144.596606 C181.386044,144.933273 179.85742,146.528511 178.470628,148.768766 C192.240847,158.849913 186.983643,175.828025 181.486902,185.597676 C187.664432,184.320227 196.483171,176.973324 199.836687,172.080632 C200.312609,174.610358 200.199144,176.639803 199.865054,178.955572 C202.474745,176.167839 204.520264,173.955902 205.859779,170.054334 C207.24342,174.32718 205.585572,183.779042 196.93703,194.448571 C197.28688,192.013238 197.394042,189.688029 197.047343,187.708928 C191.289003,195.216299 180.799809,205.130686 168.904912,209.088889 C159.562973,205.265982 145.603646,196.732876 131.641168,184.883438 C131.215675,188.187184 131.184157,190.669714 131.297621,194.278664 C106.02648,174.279984 102.776973,166.835541 97.699422,151.342542 C106.609564,163.33357 115.841189,169.267728 127.98823,177.070863 C127.947257,174.427866 128.114302,172.458203 128.574465,170.139288 C137.985743,177.247063 149.619041,182.841408 160.11769,185.415184 C145.2601,174.141541 133.797,163.195127 126.935529,151.531328 C126.191704,153.815632 125.87022,155.835638 125.542433,158.890817 C122.065996,155.574484 117.300473,149.876308 115.560679,143.614921 C114.49537,144.920688 113.928046,146.210722 113.240953,148.517052 C107.596077,138.722229 109.244469,130.528937 113.956412,123.912005 C115.236043,132.199689 118.192433,136.129575 122.857098,140.968777 C122.976867,139.074629 123.260529,136.897303 124.202917,135.018887 C129.832034,140.650988 136.92989,144.599752 142.590525,145.776515 C147.844577,146.868325 152.663681,146.176111 156.272493,144.602899 C144.970134,140.153853 135.829911,134.175645 127.940953,116.36373 C131.404783,118.550496 137.238766,119.812212 141.518912,120.019876 C135.940224,115.331702 130.197643,110.366643 127.726631,104.111549 C127.726631,104.111549 132.536279,103.306064 134.733085,101.446527 C133.929375,100.766899 132.807334,99.1433433 132.375537,98.0420944 C143.605405,94.0178162 146.189881,88.5052787 149.641104,86.236706 C151.289496,85.1511892 158.948372,85.2172641 161.576974,87.2907585 C164.129933,89.3013244 167.007527,95.3833648 169.907184,96.9125276 C172.828904,98.4574225 181.817841,97.7180125 185.180812,91.8562219 C183.031284,92.5169712 178.234243,92.2841357 176.620521,91.4440401 C172.482206,89.2887387 170.023801,84.2261401 162.279826,81.422675 C163.209607,80.1294941 164.599551,78.8772168 166.184907,78.0591461 C164.14254,77.3763718 162.02453,76.1020695 160.618827,74.5571746 C168.753625,69.3120833 168.611794,63.1450893 177.250881,64.1613848 C176.926245,62.2011617 175.608793,59.762682 173.74923,58.4915261 C177.685829,54.6465941 177.629097,48.2215933 184.58197,48.3034004 C190.901331,48.3789146 197.923544,56.8396527 203.316276,68.9691229 C202.764711,60.9583236 202.039796,57.4815235 199.757892,52.5699533 C205.188446,56.908874 207.684672,60.1465459 209.925603,69.5637973 C210.395221,62.8619111 210.502382,60.5020919 211.51411,59.2844253 C213.625817,60.0678852 214.111194,61.5781695 214.426374,62.3049937 C215.003154,63.6422246 215.712309,66.1813899 216.765011,69.724265 C218.851503,73.0028404 219.645757,74.9347456 219.645757,75.7402306 C219.645757,76.8226009 219.19505,77.8577749 218.611966,78.6255027 C218.33776,78.0025105 217.738917,77.1152185 217.114861,76.6652796 C215.973909,77.7004536 215.850989,80.1483727 213.745585,79.4813304 C212.201203,78.9904881 211.70637,78.2825423 211.70637,78.2825423 C212.084586,81.4384071 213.0711,82.5585346 214.930663,83.8233976 C220.985273,87.9483614 229.038124,90.5032589 238.698395,94.2349195 C235.524531,94.2821159 232.133193,95.1159187 230.528926,96.7017171 C228.650453,98.5581081 226.677425,103.032325 227.333,104.671613 C228.098888,106.581493 232.325453,107.786574 234.374123,112.556555 C234.979269,113.963007 236.864046,115.523634 238.635358,116.291362 C240.03791,116.017623 242.360787,115.256188 243.337846,114.623757 C243.492284,115.863448 242.89029,117.505882 242.398609,118.729842 M249.638296,99.3352752 C248.078154,97.0792882 240.61469,98.7846508 238.23508,100.889609 C239.577747,101.584969 240.375153,102.248865 241.282871,103.236843 C243.807464,101.949955 245.897108,101.861855 246.44237,102.538336 C246.896229,103.0984 246.644085,105.256848 245.994814,107.541153 C247.693635,105.958501 250.000753,102.201669 249.638296,99.3352752 M161.548608,47.8754865 C159.030319,24.9002876 149.376352,10.5085375 142.142969,9.86666667 C138.833578,19.4066287 128.703689,37.932782 130.289045,59.127104 C129.009414,58.6928973 127.13094,58.0982229 125.596013,57.0599025 C125.715782,61.4145553 124.990867,65.6339119 123.849915,68.0566595 C114.492218,74.09465 109.231862,83.6943942 104.592411,94.4394372 C113.508856,83.9901582 121.719298,75.6741556 130.818548,73.6604433 C132.019384,72.2634304 133.450301,70.2276931 133.472364,67.5374993 C135.445392,68.7583124 138.263102,68.6576268 139.968226,67.764042 C132.845156,47.7873866 138.313531,29.3556261 144.267283,21.8262299 C147.094448,27.5244065 153.095478,28.6288018 154.441297,36.727701 C152.427296,34.9153599 149.061172,34.3993461 147.384414,35.0317777 C149.187244,39.1630343 149.483513,41.8878388 145.783299,49.055396 C146.237158,50.8394193 147.264646,52.8657173 148.90043,54.2564374 C146.754054,54.2155338 144.36814,55.8548215 143.482484,57.9094373 C146.079568,57.9125838 148.153453,59.3882573 149.010743,60.9520308 C155.695713,56.3488103 157.514303,50.2919413 157.861001,47.7590687 C159.919127,48.677825 161.548608,47.8754865 161.548608,47.8754865 M192.480384,42.8254736 C195.443077,44.285415 199.256756,46.3746415 202.622879,48.3505967 C201.809715,45.9656062 201.321186,43.5837621 202.184779,40.6890507 C201.012309,40.6387079 199.716919,41.1641609 198.859629,42.237092 C198.074831,34.0595322 200.864174,35.7774805 203.782742,32.60903 C203.975002,38.5494814 206.174959,38.9176131 207.303304,48.4072324 C209.481199,37.9957105 206.099316,33.2823651 205.569813,26.6465538 C200.690825,26.8133143 194.541662,34.9719956 192.480384,42.8254736" id="Fill-6" fill="#FFFFFF"></path>
                    <path d="M203.46426,82.1026784 C202.580058,81.8677222 201.803312,81.4313749 201.407263,80.9126404 C202.368218,80.0552028 203.016019,78.8956785 202.963826,77.5561229 C201.791031,78.0138298 199.141496,77.9009288 197.836685,77.3852457 C194.674436,76.1372314 191.727097,69.2929872 185.488563,67.8222222 C185.893823,68.4904743 186.04733,69.4455561 186.065751,70.6844162 C181.125888,68.8139206 175.679452,72.5152439 171.878613,75.9297376 C175.596558,76.8939736 180.889487,83.7504234 184.008754,84.3851103 C187.720559,85.1418524 191.945077,84.0280989 193.084101,83.0028354 C196.286262,83.9182492 199.872191,86.8719846 202.19629,91.3666667 C204.73837,87.5036202 205.073015,83.658882 203.46426,82.1026784 M186.517062,80.531218 C185.362688,80.1864121 183.407005,79.0512989 182.476752,76.9733094 C183.661827,76.0151763 184.9912,75.4598252 186.980654,75.5025445 C188.613971,76.4179584 189.691591,77.9131343 191.331049,79.1703027 C190.017027,80.4884986 187.260037,80.7509173 186.517062,80.531218" id="Fill-8" fill="#241F21"></path>
                </g>
            </g>
        </g>
    </g>
</svg>